<svg xmlns="http://www.w3.org/2000/svg" xmlns:xlink="http://www.w3.org/1999/xlink" width="618pt" height="319pt" viewBox="0.00 0.00 618.42 319.40">
<g id="graph0" class="graph" transform="scale(1 1) rotate(0) translate(4 315.4)">
<title>CMDB</title>
<polygon fill="white" stroke="none" points="-4,4 -4,-315.4 614.42,-315.4 614.42,4 -4,4"/>
<!-- cis -->
<g id="node1" class="node">
<title>cis</title>
<polygon fill="none" stroke="black" points="0,-0.5 0,-310.9 240.13,-310.9 240.13,-0.5 0,-0.5"/>
<text text-anchor="middle" x="16.56" y="-151.5" font-family="Helvetica,sans-Serif" font-size="14.00">cis</text>
<polyline fill="none" stroke="black" points="33.11,-0.5 33.11,-310.9"/>
<text text-anchor="start" x="41.11" y="-294.3" font-family="Helvetica,sans-Serif" font-size="14.00">+ id : SERIAL PK</text>
<text text-anchor="start" x="41.11" y="-277.5" font-family="Helvetica,sans-Serif" font-size="14.00">+ name : VARCHAR</text>
<text text-anchor="start" x="41.11" y="-260.7" font-family="Helvetica,sans-Serif" font-size="14.00">+ type : VARCHAR</text>
<text text-anchor="start" x="41.11" y="-243.9" font-family="Helvetica,sans-Serif" font-size="14.00">+ description : TEXT</text>
<text text-anchor="start" x="41.11" y="-227.1" font-family="Helvetica,sans-Serif" font-size="14.00">+ serial_number : VARCHAR</text>
<text text-anchor="start" x="41.11" y="-210.3" font-family="Helvetica,sans-Serif" font-size="14.00">+ version : VARCHAR</text>
<text text-anchor="start" x="41.11" y="-193.5" font-family="Helvetica,sans-Serif" font-size="14.00">+ acquisition_date : DATE</text>
<text text-anchor="start" x="41.11" y="-176.7" font-family="Helvetica,sans-Serif" font-size="14.00">+ current_status : VARCHAR</text>
<text text-anchor="start" x="41.11" y="-159.9" font-family="Helvetica,sans-Serif" font-size="14.00">+ location : VARCHAR</text>
<text text-anchor="start" x="41.11" y="-143.1" font-family="Helvetica,sans-Serif" font-size="14.00">+ owner : VARCHAR</text>
<text text-anchor="start" x="41.11" y="-126.3" font-family="Helvetica,sans-Serif" font-size="14.00">+ security_level : VARCHAR</text>
<text text-anchor="start" x="41.11" y="-109.5" font-family="Helvetica,sans-Serif" font-size="14.00">+ compliance : VARCHAR</text>
<text text-anchor="start" x="41.11" y="-92.7" font-family="Helvetica,sans-Serif" font-size="14.00">+ config_status : VARCHAR</text>
<text text-anchor="start" x="41.11" y="-75.9" font-family="Helvetica,sans-Serif" font-size="14.00">+ license_number : VARCHAR</text>
<text text-anchor="start" x="41.11" y="-59.1" font-family="Helvetica,sans-Serif" font-size="14.00">+ expiry_date : DATE</text>
<text text-anchor="start" x="41.11" y="-42.3" font-family="Helvetica,sans-Serif" font-size="14.00">+ environment : VARCHAR</text>
<text text-anchor="start" x="41.11" y="-25.5" font-family="Helvetica,sans-Serif" font-size="14.00">+ created_at : TIMESTAMP</text>
<text text-anchor="start" x="41.11" y="-8.7" font-family="Helvetica,sans-Serif" font-size="14.00">+ updated_at : TIMESTAMP</text>
</g>
<!-- ci_relations -->
<g id="node2" class="node">
<title>ci_relations</title>
<polygon fill="none" stroke="black" points="328.24,-149.7 328.24,-241.7 603.41,-241.7 603.41,-149.7 328.24,-149.7"/>
<text text-anchor="middle" x="371.64" y="-191.5" font-family="Helvetica,sans-Serif" font-size="14.00">ci_relations</text>
<polyline fill="none" stroke="black" points="415.05,-149.7 415.05,-241.7"/>
<text text-anchor="start" x="423.05" y="-225.1" font-family="Helvetica,sans-Serif" font-size="14.00">+ id : SERIAL PK</text>
<text text-anchor="start" x="423.05" y="-208.3" font-family="Helvetica,sans-Serif" font-size="14.00">+ parent_ci_id : FK → cis.id</text>
<text text-anchor="start" x="423.05" y="-191.5" font-family="Helvetica,sans-Serif" font-size="14.00">+ child_ci_id : FK → cis.id</text>
<text text-anchor="start" x="423.05" y="-174.7" font-family="Helvetica,sans-Serif" font-size="14.00">+ relation_type : VARCHAR</text>
<text text-anchor="start" x="423.05" y="-157.9" font-family="Helvetica,sans-Serif" font-size="14.00">+ created_at : TIMESTAMP</text>
</g>
<!-- cis&#45;&gt;ci_relations -->
<g id="edge1" class="edge">
<title>cis-&gt;ci_relations</title>
<path fill="none" stroke="black" d="M240.28,-171.53C246.32,-172.28 252.29,-173.01 258.13,-173.7 277.37,-175.99 297.63,-178.28 317.63,-180.48"/>
<polygon fill="black" stroke="black" points="317.47,-180.46 326.92,-186.02 322.77,-181.04 327.08,-181.51 327.08,-181.51 327.08,-181.51 322.77,-181.04 327.9,-177.08 317.47,-180.46"/>
<text text-anchor="middle" x="280.68" y="-182.46" font-family="Times,serif" font-size="14.00">parent</text>
</g>
<!-- cis&#45;&gt;ci_relations -->
<g id="edge2" class="edge">
<title>cis-&gt;ci_relations</title>
<path fill="none" stroke="black" d="M240.3,-153.12C246.33,-153.03 252.3,-152.96 258.13,-152.9 278.17,-152.7 283.35,-150.31 303.22,-152.9 308.01,-153.52 312.85,-154.25 317.73,-155.05"/>
<polygon fill="black" stroke="black" points="317.6,-155.03 326.67,-161.19 322.85,-155.95 327.12,-156.7 327.12,-156.7 327.12,-156.7 322.85,-155.95 328.23,-152.33 317.6,-155.03"/>
<text text-anchor="middle" x="280.68" y="-157.1" font-family="Times,serif" font-size="14.00">child</text>
</g>
<!-- ci_changes -->
<g id="node3" class="node">
<title>ci_changes</title>
<polygon fill="none" stroke="black" points="321.22,-38.7 321.22,-130.7 610.42,-130.7 610.42,-38.7 321.22,-38.7"/>
<text text-anchor="middle" x="364.64" y="-80.5" font-family="Helvetica,sans-Serif" font-size="14.00">ci_changes</text>
<polyline fill="none" stroke="black" points="408.05,-38.7 408.05,-130.7"/>
<text text-anchor="start" x="416.05" y="-114.1" font-family="Helvetica,sans-Serif" font-size="14.00">+ id : SERIAL PK</text>
<text text-anchor="start" x="416.05" y="-97.3" font-family="Helvetica,sans-Serif" font-size="14.00">+ ci_id : FK → cis.id</text>
<text text-anchor="start" x="416.05" y="-80.5" font-family="Helvetica,sans-Serif" font-size="14.00">+ change_date : TIMESTAMP</text>
<text text-anchor="start" x="416.05" y="-63.7" font-family="Helvetica,sans-Serif" font-size="14.00">+ description : TEXT</text>
<text text-anchor="start" x="416.05" y="-46.9" font-family="Helvetica,sans-Serif" font-size="14.00">+ changed_by : VARCHAR</text>
</g>
<!-- cis&#45;&gt;ci_changes -->
<g id="edge3" class="edge">
<title>cis-&gt;ci_changes</title>
<path fill="none" stroke="black" d="M240.33,-131.07C263.07,-126.37 287.16,-121.39 310.8,-116.51"/>
<polygon fill="black" stroke="black" points="310.78,-116.52 321.48,-118.9 316.01,-115.44 320.25,-114.56 320.25,-114.56 320.25,-114.56 316.01,-115.44 319.66,-110.09 310.78,-116.52"/>
<text text-anchor="middle" x="280.68" y="-130.76" font-family="Times,serif" font-size="14.00">changes</text>
</g>
</g>
</svg>